# xmcd
#
# Track frame offsets: 
#        150
#        90872
#        104193
#        110777
#        120919
#        154263
#        170197
#        187038
#        192436
#
# Disc length: 2600 seconds
#
# Revision: 0
# Processed by: cddbd v1.5.2PL0 Copyright (c) Steve Scherf et al.
# Submitted via: ExactAudioCopy v0.95b4
#
DISCID=7d0a2609
DTITLE=The Beatles  - AB  Road - Complete Purple Chick Set v1.1 Jan.09
DTITLE=Various Artist - D5  FLAC
DYEAR=1900
DGENRE=
TTITLE0=Let It Be 9.117
TTITLE1=Let It Be 9.118
TTITLE2=Let It Be 9.119
TTITLE3=Let It Be 9.120a
TTITLE4=Let It Be 9.120b
TTITLE5=Let It Be 9.121
TTITLE6=Let It Be 9.122
TTITLE7=Dialogue
TTITLE8=Dialogue
EXTD=
EXTT0=
EXTT1=
EXTT2=
EXTT3=
EXTT4=
EXTT5=
EXTT6=
EXTT7=
EXTT8=
PLAYORDER=
